<svg version="1.1" id="Layer_1" xmlns="http://www.w3.org/2000/svg" xmlns:xlink="http://www.w3.org/1999/xlink" x="0px" y="0px"
	 width="100%" viewBox="0 0 709 710" enable-background="new 0 0 709 710" xml:space="preserve">
<path fill="#000000" opacity="1.000000" stroke="none" 
	d="
M450.000000,711.000000 
	C300.000000,711.000000 150.500000,711.000000 1.000000,711.000000 
	C1.000000,474.333344 1.000000,237.666672 1.000000,1.000000 
	C237.333328,1.000000 473.666656,1.000000 710.000000,1.000000 
	C710.000000,237.666672 710.000000,474.333344 710.000000,711.000000 
	C623.500000,711.000000 537.000000,711.000000 450.000000,711.000000 
M443.006927,231.289246 
	C442.358887,230.160034 441.710846,229.030807 441.013458,227.192917 
	C435.753632,221.009323 430.890137,214.421936 425.120087,208.758133 
	C419.584839,203.324783 413.109375,198.849304 406.995117,193.234192 
	C403.766754,190.747543 400.749908,187.903244 397.268646,185.844131 
	C388.338196,180.561874 378.557953,176.606049 368.306305,176.214752 
	C351.933441,175.589752 335.434326,174.907639 319.895538,182.775009 
	C311.235626,187.159561 302.698517,191.594391 295.562103,198.078598 
	C284.872528,207.791229 274.885284,218.267426 267.631470,230.911987 
	C262.209290,240.363724 256.469666,249.755142 252.297775,259.767731 
	C248.201782,269.598145 245.486465,280.075836 242.940262,290.459503 
	C240.451385,300.609497 238.747696,310.968262 237.081360,321.297028 
	C236.223236,326.616150 236.113144,332.064789 235.815567,337.463196 
	C235.461563,343.885284 234.856018,350.336761 235.173950,356.735046 
	C235.343277,360.142822 237.810257,362.101288 241.975708,362.202179 
	C245.972519,362.298981 246.317642,359.463989 246.818527,357.322083 
	C247.474182,354.518311 246.795731,351.432800 247.063095,348.502441 
	C247.966827,338.597351 248.168076,328.523804 250.215973,318.848694 
	C254.845032,296.979126 260.930481,275.469452 273.850250,256.729187 
	C278.283142,250.299286 283.035156,243.970306 288.447388,238.374832 
	C292.318329,234.372864 297.493774,231.613876 302.161224,228.408051 
	C305.111694,226.381500 308.198364,224.553284 312.031952,222.124146 
	C312.551392,218.651505 316.651794,217.191605 320.408691,216.108002 
	C329.331635,213.534363 338.581879,213.690186 347.770874,214.038589 
	C350.955231,214.159317 353.265381,215.448929 353.057617,219.485031 
	C352.775391,224.967972 352.987061,230.476364 352.986938,235.973831 
	C352.986725,246.266357 352.966156,246.169846 362.877655,244.054703 
	C371.359100,242.244705 379.876007,240.583847 388.412720,239.055237 
	C395.257141,237.829651 402.154816,236.901443 409.947327,236.006714 
	C419.845581,236.011002 429.744720,236.076691 439.640747,235.930923 
	C440.708527,235.915176 441.758240,234.672699 442.952972,233.335617 
	C442.919647,232.888855 442.886322,232.442108 443.006927,231.289246 
M429.802307,497.015411 
	C431.557129,494.698730 433.311920,492.382080 435.712585,489.827484 
	C436.815002,488.437225 437.965240,487.081970 439.012573,485.651428 
	C452.022888,467.881256 461.147949,448.161713 466.875244,427.026855 
	C470.108734,415.094635 472.289337,402.789429 473.834656,390.512573 
	C475.310608,378.786652 475.394287,366.881989 475.991394,355.050934 
	C476.180817,351.297791 474.117401,348.898682 470.424835,349.099915 
	C467.182495,349.276581 463.664612,349.472626 463.881897,354.777100 
	C464.668213,373.974457 461.466370,392.567383 456.280762,411.114502 
	C452.622253,424.199738 447.264404,436.396942 440.991669,448.151367 
	C435.619354,458.218567 427.795685,466.651764 419.991180,475.213531 
	C410.338562,485.802704 397.811981,489.836761 385.701935,494.522156 
	C378.568909,497.281891 369.734192,495.843842 361.663177,495.875336 
	C358.631500,495.887177 357.243530,494.455811 357.704956,490.430115 
	C358.552887,483.032074 358.134430,475.469086 357.952759,467.981903 
	C357.871796,464.644897 356.468048,463.185394 352.548462,464.620514 
	C347.306244,466.540009 341.794434,467.868439 336.295593,468.905365 
	C329.308655,470.222931 321.938812,470.112183 315.247467,472.235291 
	C307.722107,474.622955 300.253326,475.041779 292.608246,474.963135 
	C286.018402,474.895386 279.428131,474.354034 272.845276,474.462219 
	C271.040680,474.491882 268.614777,475.694366 267.703003,477.135956 
	C267.111755,478.070740 268.614197,480.482056 269.429840,482.105560 
	C270.068756,483.377289 271.150116,484.418213 271.937653,485.625153 
	C278.553345,495.764404 286.676117,504.458527 295.749054,512.518433 
	C304.251709,520.071716 314.161499,524.929443 324.240387,529.460876 
	C328.750366,531.488586 332.881561,534.757446 338.726532,534.196533 
	C346.801483,533.421570 355.015228,534.230713 363.152069,533.913696 
	C368.630035,533.700317 374.245575,533.347900 379.508820,531.957275 
	C397.723907,527.144714 412.254089,516.191101 425.325104,503.101868 
	C426.621857,501.803314 427.183411,499.770599 428.583038,497.941681 
	C428.751587,497.654755 428.920166,497.367798 429.802307,497.015411 
M330.533295,284.953033 
	C318.643311,295.428680 315.212250,309.279663 314.937866,324.554596 
	C311.312561,325.136902 309.877411,327.090698 309.903015,330.907501 
	C310.060272,354.386108 309.832764,377.867889 310.091095,401.344696 
	C310.146667,406.393066 310.470001,411.841522 314.388763,415.886688 
	C319.531525,421.195282 324.062439,427.642151 330.224213,431.287628 
	C339.018036,436.490204 348.949005,440.958191 359.671967,438.803253 
	C367.610962,437.207764 376.191284,435.500702 382.779205,431.218048 
	C394.149719,423.826202 400.981873,412.625793 401.013428,398.340088 
	C401.054230,379.856415 400.982819,361.372498 401.054565,342.889008 
	C401.063293,340.641235 401.555298,338.374908 402.002594,336.153259 
	C403.144165,330.482971 402.036377,328.690918 396.526947,326.896149 
	C395.531036,326.571716 394.154449,325.308777 394.129425,324.445068 
	C393.932861,317.657288 394.061798,310.860809 393.992188,304.068024 
	C393.977600,302.643005 393.614166,301.209961 393.313721,299.801453 
	C391.787354,292.645538 385.161774,290.154114 380.453796,285.945923 
	C378.308350,284.028229 375.915039,281.911377 373.268921,281.143494 
	C369.439209,280.032196 365.277924,280.063507 361.095154,279.588898 
	C361.095154,274.318756 361.095154,269.181000 361.095154,263.719757 
	C356.191010,263.719757 351.984772,264.543732 348.287506,263.523499 
	C342.958984,262.053070 341.439880,262.224640 341.082245,267.873352 
	C340.612457,275.293060 338.683411,281.506683 330.533295,284.953033 
z"/>
<path fill="#FCF3E8" opacity="1.000000" stroke="none" 
	d="
M330.781647,284.682556 
	C338.683411,281.506683 340.612457,275.293060 341.082245,267.873352 
	C341.439880,262.224640 342.958984,262.053070 348.287506,263.523499 
	C351.984772,264.543732 356.191010,263.719757 361.095154,263.719757 
	C361.095154,269.181000 361.095154,274.318756 361.095154,279.588898 
	C365.277924,280.063507 369.439209,280.032196 373.268921,281.143494 
	C375.915039,281.911377 378.308350,284.028229 380.453796,285.945923 
	C385.161774,290.154114 391.787354,292.645538 393.313721,299.801453 
	C393.614166,301.209961 393.977600,302.643005 393.992188,304.068024 
	C394.061798,310.860809 393.932861,317.657288 394.129425,324.445068 
	C394.154449,325.308777 395.531036,326.571716 396.526947,326.896149 
	C402.036377,328.690918 403.144165,330.482971 402.002594,336.153259 
	C401.555298,338.374908 401.063293,340.641235 401.054565,342.889008 
	C400.982819,361.372498 401.054230,379.856415 401.013428,398.340088 
	C400.981873,412.625793 394.149719,423.826202 382.779205,431.218048 
	C376.191284,435.500702 367.610962,437.207764 359.671967,438.803253 
	C348.949005,440.958191 339.018036,436.490204 330.224213,431.287628 
	C324.062439,427.642151 319.531525,421.195282 314.388763,415.886688 
	C310.470001,411.841522 310.146667,406.393066 310.091095,401.344696 
	C309.832764,377.867889 310.060272,354.386108 309.903015,330.907501 
	C309.877411,327.090698 311.312561,325.136902 314.937866,324.554596 
	C315.212250,309.279663 318.643311,295.428680 330.781647,284.682556 
M398.968750,369.500000 
	C398.968750,356.434204 398.968750,343.368408 398.968750,330.432739 
	C369.500916,330.432739 340.950867,330.432739 312.369507,330.432739 
	C312.219299,331.534851 312.053650,332.185303 312.053162,332.835876 
	C312.036072,354.992004 311.965485,377.148621 312.110809,399.303772 
	C312.130951,402.374329 312.897491,405.549225 313.885010,408.485260 
	C318.133484,421.116943 327.663300,428.586426 339.632477,432.884827 
	C345.726044,435.073181 352.422882,436.781433 358.796753,436.627411 
	C364.357819,436.493073 370.041992,433.888641 375.331940,431.592682 
	C388.447357,425.900360 399.502441,413.784790 399.006561,396.986176 
	C398.746124,388.164764 398.966003,379.329193 398.968750,369.500000 
M319.792450,307.348663 
	C319.587891,309.120911 319.383362,310.893158 319.178802,312.665405 
	C319.643677,312.791260 320.108551,312.917145 320.573395,313.043030 
	C321.732239,311.084900 322.891083,309.126801 324.049377,307.169586 
	C325.152924,309.131531 326.097809,310.811401 326.947632,312.322266 
	C328.696930,307.963196 330.244537,304.106812 332.253326,299.101166 
	C334.132477,304.316040 335.607269,308.408661 337.182373,312.779694 
	C338.739014,309.481171 340.243378,306.293396 342.048828,302.467621 
	C343.750763,306.456848 345.029266,309.453705 346.702881,313.376526 
	C347.591461,310.477051 349.103241,308.240143 348.655914,306.509766 
	C347.177948,300.792877 351.165710,299.055298 354.870056,298.410797 
	C358.520142,297.775787 362.055298,299.613159 363.010437,303.990784 
	C363.606812,306.723938 364.061401,309.488037 364.730072,313.036865 
	C366.451355,309.027954 367.843384,305.785797 369.303345,302.385437 
	C371.009918,306.002777 372.530365,309.225555 374.308655,312.994934 
	C375.058990,309.939636 375.380615,307.801605 376.128143,305.824615 
	C376.840576,303.940643 377.997192,302.224640 379.388672,299.633881 
	C381.121796,304.323914 382.626343,308.395416 384.269836,312.842987 
	C385.196350,311.090179 386.133698,309.316895 387.293518,307.122650 
	C388.530365,309.328094 389.556610,311.158051 391.191742,314.073730 
	C393.177246,306.557251 389.919617,301.590546 386.840546,297.273590 
	C380.376251,288.210480 372.314301,281.179749 361.124451,282.914520 
	C358.138733,279.596924 355.820404,277.020905 354.178741,275.196747 
	C355.412018,273.074127 356.490692,271.217590 357.569397,269.361053 
	C355.469604,269.361053 353.369812,269.361053 350.979858,269.361053 
	C349.394440,268.391388 347.183044,267.038849 344.971649,265.686310 
	C345.208221,268.191589 345.444794,270.696899 345.590820,272.243530 
	C344.834229,274.892456 344.253998,276.923798 343.673767,278.955139 
	C345.721405,278.804901 347.769043,278.654633 350.768005,278.434570 
	C350.990662,279.090790 351.549469,280.737671 351.724182,281.252533 
	C345.473114,283.332489 339.540588,284.400177 334.560120,287.176056 
	C327.087769,291.340729 322.260712,298.167297 319.792450,307.348663 
M349.500000,328.019562 
	C363.882477,328.019562 378.264954,328.019562 392.662750,328.019562 
	C392.662750,323.345703 392.662750,319.435486 392.662750,315.381866 
	C368.032898,315.381866 343.726257,315.381866 319.342865,315.381866 
	C319.342865,319.708801 319.342865,323.607849 319.342865,328.019440 
	C329.294556,328.019440 338.897186,328.019440 349.500000,328.019562 
z"/>
<path fill="#EAFBF9" opacity="1.000000" stroke="none" 
	d="
M428.086151,498.078613 
	C427.183411,499.770599 426.621857,501.803314 425.325104,503.101868 
	C412.254089,516.191101 397.723907,527.144714 379.508820,531.957275 
	C374.245575,533.347900 368.630035,533.700317 363.152069,533.913696 
	C355.015228,534.230713 346.801483,533.421570 338.726532,534.196533 
	C332.881561,534.757446 328.750366,531.488586 324.240387,529.460876 
	C314.161499,524.929443 304.251709,520.071716 295.749054,512.518433 
	C286.676117,504.458527 278.553345,495.764404 271.937653,485.625153 
	C271.150116,484.418213 270.068756,483.377289 269.429840,482.105560 
	C268.614197,480.482056 267.111755,478.070740 267.703003,477.135956 
	C268.614777,475.694366 271.040680,474.491882 272.845276,474.462219 
	C279.428131,474.354034 286.018402,474.895386 292.608246,474.963135 
	C300.253326,475.041779 307.722107,474.622955 315.247467,472.235291 
	C321.938812,470.112183 329.308655,470.222931 336.295593,468.905365 
	C341.794434,467.868439 347.306244,466.540009 352.548462,464.620514 
	C356.468048,463.185394 357.871796,464.644897 357.952759,467.981903 
	C358.134430,475.469086 358.552887,483.032074 357.704956,490.430115 
	C357.243530,494.455811 358.631500,495.887177 361.663177,495.875336 
	C369.734192,495.843842 378.568909,497.281891 385.701935,494.522156 
	C397.811981,489.836761 410.338562,485.802704 419.991180,475.213531 
	C427.795685,466.651764 435.619354,458.218567 440.991669,448.151367 
	C447.264404,436.396942 452.622253,424.199738 456.280762,411.114502 
	C461.466370,392.567383 464.668213,373.974457 463.881897,354.777100 
	C463.664612,349.472626 467.182495,349.276581 470.424835,349.099915 
	C474.117401,348.898682 476.180817,351.297791 475.991394,355.050934 
	C475.394287,366.881989 475.310608,378.786652 473.834656,390.512573 
	C472.289337,402.789429 470.108734,415.094635 466.875244,427.026855 
	C461.147949,448.161713 452.022888,467.881256 439.012573,485.651428 
	C437.965240,487.081970 436.815002,488.437225 435.381714,489.937378 
	C435.050873,490.047302 435.050690,490.050903 434.738281,489.772400 
	C435.086517,488.381348 435.743011,487.266266 436.408478,486.156555 
	C440.628204,479.119568 444.849945,472.083740 449.037415,465.025543 
	C449.003784,465.003571 449.047424,465.070953 449.374207,464.915985 
	C454.742615,451.497101 459.784271,438.233185 464.897461,424.656464 
	C465.009674,423.917694 465.050354,423.491730 465.420959,422.853485 
	C467.686279,413.064880 470.277802,403.564392 471.394867,393.893585 
	C472.868195,381.138153 473.240723,368.251923 473.895996,355.412201 
	C473.950897,354.335876 472.606537,352.295288 471.834167,352.256439 
	C470.250336,352.176819 468.161713,352.725647 467.130615,353.817902 
	C466.177429,354.827576 466.173767,356.870056 466.026978,358.482727 
	C464.968475,370.112885 464.560760,381.836731 462.827362,393.362518 
	C460.470001,409.037445 456.019409,424.264862 448.700073,438.406830 
	C443.845856,447.785767 438.199188,456.754608 432.597687,466.045959 
	C426.949371,471.538147 421.919037,477.248474 416.213287,482.176819 
	C400.001617,496.179626 381.420929,502.142242 359.929321,498.127289 
	C356.537994,497.493744 355.923767,496.269012 355.961731,493.349060 
	C356.073486,484.745483 356.001556,476.139526 356.001556,467.335266 
	C327.572906,474.328491 299.329742,479.435547 269.733032,476.944427 
	C270.353363,478.423645 270.566681,479.206085 270.975769,479.867371 
	C279.445618,493.558228 290.076202,505.398865 302.975098,514.932861 
	C325.870850,531.855835 351.221619,537.779358 379.064545,529.961182 
	C390.632446,526.713013 401.152313,521.295532 410.453979,513.091797 
	C416.053040,508.085968 421.292664,503.088379 426.581482,498.143372 
	C426.857941,497.884888 427.552887,498.073944 428.059570,498.052856 
	C428.066132,498.051117 428.086151,498.078613 428.086151,498.078613 
z"/>
<path fill="#FCF3E8" opacity="1.000000" stroke="none" 
	d="
M409.028839,235.841278 
	C402.154816,236.901443 395.257141,237.829651 388.412720,239.055237 
	C379.876007,240.583847 371.359100,242.244705 362.877655,244.054703 
	C352.966156,246.169846 352.986725,246.266357 352.986938,235.973831 
	C352.987061,230.476364 352.775391,224.967972 353.057617,219.485031 
	C353.265381,215.448929 350.955231,214.159317 347.770874,214.038589 
	C338.581879,213.690186 329.331635,213.534363 320.408691,216.108002 
	C316.651794,217.191605 312.551392,218.651505 312.031952,222.124146 
	C308.198364,224.553284 305.111694,226.381500 302.161224,228.408051 
	C297.493774,231.613876 292.318329,234.372864 288.447388,238.374832 
	C283.035156,243.970306 278.283142,250.299286 273.850250,256.729187 
	C260.930481,275.469452 254.845032,296.979126 250.215973,318.848694 
	C248.168076,328.523804 247.966827,338.597351 247.063095,348.502441 
	C246.795731,351.432800 247.474182,354.518311 246.818527,357.322083 
	C246.317642,359.463989 245.972519,362.298981 241.975708,362.202179 
	C237.810257,362.101288 235.343277,360.142822 235.173950,356.735046 
	C234.856018,350.336761 235.461563,343.885284 235.815567,337.463196 
	C236.113144,332.064789 236.223236,326.616150 237.081360,321.297028 
	C238.747696,310.968262 240.451385,300.609497 242.940262,290.459503 
	C245.486465,280.075836 248.201782,269.598145 252.297775,259.767731 
	C256.469666,249.755142 262.209290,240.363724 267.631470,230.911987 
	C274.885284,218.267426 284.872528,207.791229 295.562103,198.078598 
	C302.698517,191.594391 311.235626,187.159561 319.895538,182.775009 
	C335.434326,174.907639 351.933441,175.589752 368.306305,176.214752 
	C378.557953,176.606049 388.338196,180.561874 397.268646,185.844131 
	C400.749908,187.903244 403.766754,190.747543 407.004395,193.610443 
	C407.013702,193.986710 407.041901,193.957397 406.758240,194.264053 
	C401.153473,191.671158 395.935303,188.560226 390.492432,185.910873 
	C372.652679,177.227203 353.908691,175.377609 334.883423,180.529968 
	C304.505035,188.756989 283.286163,208.931961 267.565521,235.203629 
	C261.234894,245.783081 256.344421,257.263153 251.298721,268.556793 
	C248.647827,274.490173 246.410583,280.774567 245.157242,287.131287 
	C242.612900,300.035614 240.529129,313.054993 238.899475,326.107361 
	C237.713425,335.606750 237.386353,345.228668 237.033554,354.809143 
	C236.896042,358.543549 241.106430,360.910156 243.373489,358.555084 
	C244.627960,357.251892 244.760254,354.675873 245.007294,352.626434 
	C246.781723,337.905518 247.128983,322.866547 250.439575,308.507324 
	C257.213470,279.126526 269.105316,252.328827 292.573456,231.570770 
	C309.047333,216.999252 326.972229,209.707779 349.024841,212.861435 
	C353.693237,213.529037 355.247406,214.929169 355.068298,219.553207 
	C354.755768,227.622116 354.981293,235.711853 354.981293,242.720139 
	C373.341583,240.086380 391.161255,237.530182 408.996368,235.190613 
	C409.011841,235.407242 409.028839,235.841278 409.028839,235.841278 
z"/>
<path fill="#FCF3E8" opacity="1.000000" stroke="none" 
	d="
M407.030396,193.969803 
	C413.109375,198.849304 419.584839,203.324783 425.120087,208.758133 
	C430.890137,214.421936 435.753632,221.009323 441.055420,227.899338 
	C441.398865,229.736603 441.700317,230.867462 441.814453,232.186646 
	C441.502319,232.500504 441.377441,232.626053 441.015411,232.499878 
	C438.242950,229.113892 435.707642,225.979645 433.087646,222.919739 
	C433.002930,222.994110 433.154907,222.827728 433.174469,222.462906 
	C426.823242,215.073395 420.481598,208.021912 414.065918,201.038498 
	C411.818298,198.592026 409.388489,196.312927 407.041901,193.957397 
	C407.041901,193.957397 407.013702,193.986710 407.030396,193.969803 
z"/>
<path fill="#EAFBF9" opacity="1.000000" stroke="none" 
	d="
M409.488098,235.923996 
	C409.028839,235.841278 409.011841,235.407242 409.003601,235.202789 
	C408.995331,234.998352 408.974243,234.980804 409.444244,235.000366 
	C416.024994,235.022934 422.138153,235.131531 428.245667,234.992630 
	C432.463959,234.896667 436.674469,234.458664 441.125000,234.055435 
	C441.534729,233.904358 441.707886,233.871368 442.111572,233.897461 
	C442.342163,233.956543 442.816315,233.999268 442.816315,233.999268 
	C441.758240,234.672699 440.708527,235.915176 439.640747,235.930923 
	C429.744720,236.076691 419.845581,236.011002 409.488098,235.923996 
z"/>
<path fill="#EAFBF9" opacity="1.000000" stroke="none" 
	d="
M435.058807,490.056335 
	C433.311920,492.382080 431.557129,494.698730 429.234467,496.889709 
	C428.524017,496.660980 428.381439,496.557953 428.436127,496.184814 
	C430.772522,493.960144 432.911621,492.005524 435.050690,490.050903 
	C435.050690,490.050903 435.050873,490.047302 435.058807,490.056335 
z"/>
<path fill="#EAFBF9" opacity="1.000000" stroke="none" 
	d="
M442.001770,231.998322 
	C441.700317,230.867462 441.398865,229.736603 441.080078,228.253677 
	C441.710846,229.030807 442.358887,230.160034 442.717163,231.643951 
	C442.427399,231.998642 442.001770,231.998322 442.001770,231.998322 
z"/>
<path fill="#FCF3E8" opacity="1.000000" stroke="none" 
	d="
M441.814453,232.186646 
	C442.001770,231.998322 442.427399,231.998642 442.640198,231.996994 
	C442.886322,232.442108 442.919647,232.888855 442.884644,233.667450 
	C442.816315,233.999268 442.342163,233.956543 442.034119,233.700958 
	C441.495117,233.264069 441.337280,233.032822 441.252594,232.751602 
	C441.377441,232.626053 441.502319,232.500504 441.814453,232.186646 
z"/>
<path fill="#EAFBF9" opacity="1.000000" stroke="none" 
	d="
M428.877686,496.922424 
	C428.920166,497.367798 428.751587,497.654755 428.334595,498.010132 
	C428.086151,498.078613 428.066132,498.051117 427.817535,497.817993 
	C427.792236,497.208221 428.015533,496.831573 428.238831,496.454926 
	C428.381439,496.557953 428.524017,496.660980 428.877686,496.922424 
z"/>
<path fill="#AEA47E" opacity="1.000000" stroke="none" 
	d="
M398.968872,370.000000 
	C398.966003,379.329193 398.746124,388.164764 399.006561,396.986176 
	C399.502441,413.784790 388.447357,425.900360 375.331940,431.592682 
	C370.041992,433.888641 364.357819,436.493073 358.796753,436.627411 
	C352.422882,436.781433 345.726044,435.073181 339.632477,432.884827 
	C327.663300,428.586426 318.133484,421.116943 313.885010,408.485260 
	C312.897491,405.549225 312.130951,402.374329 312.110809,399.303772 
	C311.965485,377.148621 312.036072,354.992004 312.053162,332.835876 
	C312.053650,332.185303 312.219299,331.534851 312.369507,330.432739 
	C340.950867,330.432739 369.500916,330.432739 398.968750,330.432739 
	C398.968750,343.368408 398.968750,356.434204 398.968872,370.000000 
M326.978668,419.994934 
	C326.978668,419.994934 326.946106,420.051788 327.173492,420.650177 
	C327.809937,421.212799 328.446411,421.775391 329.530853,422.797913 
	C336.785614,427.998413 344.810486,431.184814 353.973602,432.356445 
	C353.973602,428.772125 353.973602,425.491913 353.931976,421.418945 
	C353.886261,420.893524 353.840515,420.368134 353.907532,419.262329 
	C353.997772,418.879272 354.087982,418.496246 354.672119,417.585785 
	C354.448578,414.362946 354.225067,411.140137 353.928070,407.018341 
	C353.954651,403.717346 353.981232,400.416351 354.049683,396.168579 
	C354.037262,391.726166 354.024841,387.283752 353.937866,381.971863 
	C353.596893,378.980743 353.255951,375.989655 353.397797,372.304779 
	C353.542969,367.580719 353.688110,362.856689 353.872986,357.196869 
	C353.860229,354.084747 353.847504,350.972595 353.826233,346.944275 
	C353.884735,343.787323 353.882965,340.627777 354.020844,337.474274 
	C354.131561,334.941559 353.100128,333.901489 350.513306,333.919983 
	C340.197693,333.993835 329.880310,333.881256 319.566071,334.021667 
	C318.384705,334.037720 316.198395,335.230682 316.211182,335.841736 
	C316.296051,339.903717 316.853088,343.955811 316.529083,348.448181 
	C316.754028,351.626801 316.979004,354.805389 316.736023,358.694031 
	C316.553436,363.454834 316.370850,368.215668 316.026306,373.871399 
	C316.027130,376.883728 316.027924,379.896027 315.968384,383.849762 
	C315.981812,388.260590 315.995239,392.671448 316.016754,397.906097 
	C316.691803,401.260590 317.366852,404.615051 318.314880,408.576782 
	C319.171173,410.098175 320.027435,411.619568 321.127869,413.725586 
	C322.034943,414.856445 322.942017,415.987305 324.072784,417.576447 
	C324.359924,417.749847 324.647095,417.923279 325.129059,418.506012 
	C325.291199,418.776306 325.519714,418.967072 326.055115,419.552856 
	C326.358337,419.720917 326.661530,419.889008 326.978668,419.994934 
M358.010529,379.591675 
	C358.033875,380.089630 358.057190,380.587555 357.910370,381.998962 
	C357.910919,389.312378 357.911438,396.625824 357.304230,404.534668 
	C357.304230,414.247284 357.304230,423.959900 357.304230,433.723602 
	C368.601013,432.108887 378.480560,428.385925 385.807037,421.292786 
	C390.429810,416.817200 395.189575,411.729340 395.007141,403.319641 
	C395.042908,381.535614 395.065613,359.751587 395.132812,337.967651 
	C395.140320,335.533905 394.840912,333.814301 391.696777,333.850769 
	C381.554169,333.968323 371.409058,333.934631 361.265594,333.860565 
	C358.659149,333.841522 357.792389,334.945068 357.818756,337.457336 
	C357.963501,351.253235 358.010803,365.050171 358.010529,379.591675 
z"/>
<path fill="#AEA47E" opacity="1.000000" stroke="none" 
	d="
M319.881836,306.960693 
	C322.260712,298.167297 327.087769,291.340729 334.560120,287.176056 
	C339.540588,284.400177 345.473114,283.332489 351.724182,281.252533 
	C351.549469,280.737671 350.990662,279.090790 350.768005,278.434570 
	C347.769043,278.654633 345.721405,278.804901 343.673767,278.955139 
	C344.253998,276.923798 344.834229,274.892456 345.590820,272.243530 
	C345.444794,270.696899 345.208221,268.191589 344.971649,265.686310 
	C347.183044,267.038849 349.394440,268.391388 350.979858,269.361053 
	C353.369812,269.361053 355.469604,269.361053 357.569397,269.361053 
	C356.490692,271.217590 355.412018,273.074127 354.178741,275.196747 
	C355.820404,277.020905 358.138733,279.596924 361.124451,282.914520 
	C372.314301,281.179749 380.376251,288.210480 386.840546,297.273590 
	C389.919617,301.590546 393.177246,306.557251 391.191742,314.073730 
	C389.556610,311.158051 388.530365,309.328094 387.293518,307.122650 
	C386.133698,309.316895 385.196350,311.090179 384.269836,312.842987 
	C382.626343,308.395416 381.121796,304.323914 379.388672,299.633881 
	C377.997192,302.224640 376.840576,303.940643 376.128143,305.824615 
	C375.380615,307.801605 375.058990,309.939636 374.308655,312.994934 
	C372.530365,309.225555 371.009918,306.002777 369.303345,302.385437 
	C367.843384,305.785797 366.451355,309.027954 364.730072,313.036865 
	C364.061401,309.488037 363.606812,306.723938 363.010437,303.990784 
	C362.055298,299.613159 358.520142,297.775787 354.870056,298.410797 
	C351.165710,299.055298 347.177948,300.792877 348.655914,306.509766 
	C349.103241,308.240143 347.591461,310.477051 346.702881,313.376526 
	C345.029266,309.453705 343.750763,306.456848 342.048828,302.467621 
	C340.243378,306.293396 338.739014,309.481171 337.182373,312.779694 
	C335.607269,308.408661 334.132477,304.316040 332.253326,299.101166 
	C330.244537,304.106812 328.696930,307.963196 326.947632,312.322266 
	C326.097809,310.811401 325.152924,309.131531 324.049377,307.169586 
	C322.891083,309.126801 321.732239,311.084900 320.573395,313.043030 
	C320.108551,312.917145 319.643677,312.791260 319.178802,312.665405 
	C319.383362,310.893158 319.587891,309.120911 319.881836,306.960693 
M350.058044,295.487915 
	C350.763550,294.451447 351.730133,293.502228 352.112579,292.357819 
	C352.670135,290.689423 352.807526,288.880646 353.061768,287.475708 
	C351.647430,287.475708 349.443939,287.475708 347.110321,287.475708 
	C347.110321,290.366455 347.031433,292.834656 347.214966,295.283173 
	C347.236725,295.573273 348.694092,295.755768 350.058044,295.487915 
M363.202301,287.321899 
	C361.148376,287.212616 359.094421,287.103333 357.040497,286.994049 
	C362.645966,288.678986 358.877594,291.958527 358.179291,294.512970 
	C360.145233,295.213440 361.805664,295.805023 363.759949,296.501343 
	C363.759949,293.438751 363.759949,290.703308 363.202301,287.321899 
z"/>
<path fill="#AEA47E" opacity="1.000000" stroke="none" 
	d="
M348.999908,328.019501 
	C338.897186,328.019440 329.294556,328.019440 319.342865,328.019440 
	C319.342865,323.607849 319.342865,319.708801 319.342865,315.381866 
	C343.726257,315.381866 368.032898,315.381866 392.662750,315.381866 
	C392.662750,319.435486 392.662750,323.345703 392.662750,328.019562 
	C378.264954,328.019562 363.882477,328.019562 348.999908,328.019501 
M351.610565,319.903839 
	C351.361511,321.009247 351.112457,322.114624 350.863434,323.220032 
	C353.593536,323.471100 356.329590,323.915283 359.049286,323.830841 
	C359.689758,323.810974 360.274902,322.008911 360.885498,321.026764 
	C358.653229,320.055023 356.456360,318.979462 354.159790,318.196320 
	C353.681091,318.033051 352.833649,318.951050 351.610565,319.903839 
M341.433899,323.987762 
	C342.457428,322.755341 343.480957,321.522919 345.223694,319.424438 
	C341.663544,319.424438 339.968628,319.424438 338.273682,319.424438 
	C337.986572,319.829651 337.699463,320.234863 337.412354,320.640045 
	C338.468414,321.755676 339.524506,322.871338 341.433899,323.987762 
M372.944427,320.657013 
	C371.397156,320.427521 369.849854,320.198029 368.302582,319.968536 
	C368.480347,321.185150 368.297760,323.192017 368.904236,323.468536 
	C370.645172,324.262451 372.908569,324.750427 372.944427,320.657013 
z"/>
<path fill="#226050" opacity="1.000000" stroke="none" 
	d="
M410.104767,513.111023 
	C401.152313,521.295532 390.632446,526.713013 379.064545,529.961182 
	C351.221619,537.779358 325.870850,531.855835 302.975098,514.932861 
	C290.076202,505.398865 279.445618,493.558228 270.975769,479.867371 
	C270.566681,479.206085 270.353363,478.423645 269.733032,476.944427 
	C299.329742,479.435547 327.572906,474.328491 356.001556,467.335266 
	C356.001556,476.139526 356.073486,484.745483 355.961731,493.349060 
	C355.923767,496.269012 356.537994,497.493744 359.929321,498.127289 
	C381.420929,502.142242 400.001617,496.179626 416.213287,482.176819 
	C421.919037,477.248474 426.949371,471.538147 432.655823,466.105133 
	C433.023560,466.025391 433.139343,466.144226 433.095520,466.542542 
	C432.464691,468.895294 432.483826,471.806824 431.181396,472.631683 
	C426.567383,475.553864 424.968048,481.303314 418.572479,483.132690 
	C413.470123,484.592133 409.731689,490.649353 405.228851,494.478760 
	C403.865845,495.637939 402.012665,496.777466 400.314789,496.891052 
	C392.482513,497.414948 392.473755,497.283966 391.996399,504.885010 
	C389.697571,504.495728 386.316284,504.920776 385.313324,503.574280 
	C381.681915,498.699036 377.823090,501.560699 373.291443,501.834015 
	C374.737946,502.986786 375.537048,503.623596 377.357941,505.074707 
	C371.486298,504.321655 366.918091,503.833221 362.387421,503.109924 
	C360.387024,502.790588 358.147217,502.426331 356.594604,501.291168 
	C355.113220,500.208069 353.539001,498.131531 353.468353,496.430939 
	C353.141388,488.558716 353.323883,480.665375 353.323883,471.672699 
	C346.306641,472.922333 340.169342,473.697540 334.225311,475.224884 
	C331.730499,475.865997 329.644867,478.099304 327.602844,479.456177 
	C323.814575,479.313080 319.755188,478.980652 315.707397,479.087799 
	C313.875824,479.136292 312.066803,480.510193 310.248535,480.507904 
	C300.747589,480.496033 291.246704,480.137543 281.746613,480.166901 
	C280.326569,480.171295 278.575684,481.323151 277.654297,482.481964 
	C277.272980,482.961609 278.413361,485.101349 279.314728,486.060242 
	C281.423279,488.303284 283.805756,490.288818 286.291321,492.575531 
	C286.703186,491.669312 287.158508,490.667480 287.613800,489.665649 
	C288.393127,490.977478 287.832672,492.261566 288.245392,493.006409 
	C289.190155,494.711426 290.801178,497.599335 291.806580,497.466705 
	C298.329346,496.606415 297.032806,500.614227 296.552979,503.316071 
	C298.914734,505.828918 300.596252,507.910950 302.578369,509.650482 
	C304.896790,511.685303 307.707397,513.188049 309.891571,515.340637 
	C313.415161,518.813232 316.470245,522.778198 322.385010,521.300476 
	C323.100616,521.121704 324.148102,522.463989 325.099182,522.999451 
	C328.111542,524.695374 331.041962,527.506042 334.199585,527.802368 
	C346.141876,528.922974 358.158936,529.551453 370.153259,529.638306 
	C374.033264,529.666443 379.133911,529.848206 380.576324,524.564209 
	C381.535736,525.034607 382.378143,525.447632 383.559082,526.026672 
	C383.559082,524.071411 383.559082,522.712280 383.559082,521.298950 
	C392.998688,522.659973 393.454498,522.434204 394.123932,516.041321 
	C395.874908,516.178894 398.685364,517.068359 399.212189,516.329468 
	C402.025208,512.384277 406.193970,513.585938 409.901093,512.901489 
	C409.969269,512.971069 410.104767,513.111023 410.104767,513.111023 
z"/>
<path fill="#226050" opacity="1.000000" stroke="none" 
	d="
M428.436127,496.184814 
	C428.015533,496.831573 427.792236,497.208221 427.810974,497.819763 
	C427.552887,498.073944 426.857941,497.884888 426.581482,498.143372 
	C421.292664,503.088379 416.053040,508.085968 410.453979,513.091797 
	C410.104767,513.111023 409.969269,512.971069 409.955017,512.529114 
	C409.940765,510.486481 409.940765,508.885773 409.940765,507.694824 
	C412.167603,506.652344 414.783234,506.239624 415.851135,504.731140 
	C417.327637,502.645508 417.638550,499.734680 418.558807,496.829346 
	C425.450653,499.113953 425.160950,493.838470 425.329468,488.919128 
	C429.958618,491.108276 432.168945,489.408417 433.429535,485.520508 
	C433.811523,484.342377 435.089813,483.482666 435.812012,482.381622 
	C437.758362,479.414185 439.935394,476.533203 441.366364,473.325897 
	C441.904968,472.118713 441.156158,469.357178 440.088837,468.626221 
	C438.126343,467.282043 435.493042,466.917236 433.139343,466.144226 
	C433.139343,466.144226 433.023560,466.025391 432.965393,465.966187 
	C438.199188,456.754608 443.845856,447.785767 448.700073,438.406830 
	C456.019409,424.264862 460.470001,409.037445 462.827362,393.362518 
	C464.560760,381.836731 464.968475,370.112885 466.026978,358.482727 
	C466.173767,356.870056 466.177429,354.827576 467.130615,353.817902 
	C468.161713,352.725647 470.250336,352.176819 471.834167,352.256439 
	C472.606537,352.295288 473.950897,354.335876 473.895996,355.412201 
	C473.240723,368.251923 472.868195,381.138153 471.394867,393.893585 
	C470.277802,403.564392 467.686279,413.064880 465.142761,422.611816 
	C463.926544,420.780090 463.318451,418.977722 462.455078,416.418915 
	C460.968384,418.314606 459.962799,419.221893 459.449249,420.352661 
	C458.887360,421.589722 458.780273,423.033325 458.474976,424.386902 
	C459.943207,424.649078 461.404846,424.963562 462.882721,425.148895 
	C463.513031,425.227936 464.177185,425.037354 464.825928,424.969299 
	C459.784271,438.233185 454.742615,451.497101 449.358521,464.499451 
	C450.017944,460.153198 450.776428,455.987579 452.099915,452.009949 
	C453.129333,448.916138 455.221741,446.167816 456.183899,443.062134 
	C457.175476,439.861359 457.371002,436.413971 457.914825,433.074463 
	C457.428070,432.987549 456.941315,432.900635 456.454559,432.813721 
	C453.369843,437.692352 450.175476,442.506775 447.262543,447.485901 
	C446.300110,449.130981 446.050934,451.197083 445.500275,453.077881 
	C445.191437,454.132874 445.239655,455.465881 444.595001,456.216949 
	C442.572052,458.573700 440.296844,460.713898 438.119324,462.937927 
	C438.328003,463.511230 438.536713,464.084503 438.745392,464.657776 
	C442.187256,464.787689 445.629120,464.917603 449.070984,465.047516 
	C444.849945,472.083740 440.628204,479.119568 436.408478,486.156555 
	C435.743011,487.266266 435.086517,488.381348 434.738281,489.772400 
	C432.911621,492.005524 430.772522,493.960144 428.436127,496.184814 
M463.067352,410.616119 
	C463.448822,411.454590 463.830261,412.293060 464.625824,414.041809 
	C465.735443,408.224091 471.404175,403.543365 464.292175,397.840820 
	C463.818970,402.259735 463.413300,406.048157 463.067352,410.616119 
z"/>
<path fill="#12664F" opacity="1.000000" stroke="none" 
	d="
M464.897461,424.656464 
	C464.177185,425.037354 463.513031,425.227936 462.882721,425.148895 
	C461.404846,424.963562 459.943207,424.649078 458.474976,424.386902 
	C458.780273,423.033325 458.887360,421.589722 459.449249,420.352661 
	C459.962799,419.221893 460.968384,418.314606 462.455078,416.418915 
	C463.318451,418.977722 463.926544,420.780090 464.812866,422.824127 
	C465.050354,423.491730 465.009674,423.917694 464.897461,424.656464 
z"/>
<path fill="#AF3330" opacity="1.000000" stroke="none" 
	d="
M441.015411,232.499878 
	C441.337280,233.032822 441.495117,233.264069 441.803558,233.641876 
	C441.707886,233.871368 441.534729,233.904358 440.674194,233.973145 
	C432.850677,234.031311 425.712708,233.966141 418.579224,234.115677 
	C415.372925,234.182907 412.175629,234.679199 408.974243,234.980804 
	C408.974243,234.980804 408.995331,234.998352 408.988098,234.986160 
	C391.161255,237.530182 373.341583,240.086380 354.981293,242.720139 
	C354.981293,235.711853 354.755768,227.622116 355.068298,219.553207 
	C355.247406,214.929169 353.693237,213.529037 349.024841,212.861435 
	C326.972229,209.707779 309.047333,216.999252 292.573456,231.570770 
	C269.105316,252.328827 257.213470,279.126526 250.439575,308.507324 
	C247.128983,322.866547 246.781723,337.905518 245.007294,352.626434 
	C244.760254,354.675873 244.627960,357.251892 243.373489,358.555084 
	C241.106430,360.910156 236.896042,358.543549 237.033554,354.809143 
	C237.386353,345.228668 237.713425,335.606750 238.899475,326.107361 
	C240.529129,313.054993 242.612900,300.035614 245.157242,287.131287 
	C246.410583,280.774567 248.647827,274.490173 251.298721,268.556793 
	C256.344421,257.263153 261.234894,245.783081 267.565521,235.203629 
	C283.286163,208.931961 304.505035,188.756989 334.883423,180.529968 
	C353.908691,175.377609 372.652679,177.227203 390.492432,185.910873 
	C395.935303,188.560226 401.153473,191.671158 406.758240,194.264053 
	C409.388489,196.312927 411.818298,198.592026 414.065918,201.038498 
	C420.481598,208.021912 426.823242,215.073395 432.812927,222.508957 
	C431.359009,222.826599 429.772369,223.143936 429.308807,222.563843 
	C427.866791,220.759293 427.118805,218.384918 425.624878,216.639603 
	C417.174255,206.766968 407.163940,199.026718 396.174377,191.874588 
	C388.333069,186.771393 379.805115,185.403702 371.689240,182.330048 
	C358.428406,177.307877 344.739838,180.820496 331.652008,184.093445 
	C322.471619,186.389267 314.502563,191.808563 306.459778,197.194275 
	C295.398865,204.600952 287.196167,214.282684 279.113342,224.356323 
	C277.996979,225.747650 277.379883,227.529205 276.341217,228.995163 
	C272.956085,233.773117 268.911499,238.183563 266.179077,243.300583 
	C262.230072,250.695953 258.821014,258.441803 255.887817,266.301697 
	C252.278168,275.974152 248.987396,285.808960 246.326706,295.778534 
	C244.207809,303.718018 242.884033,311.919922 241.853073,320.086884 
	C240.548157,330.423889 239.804733,340.836975 239.074478,351.235168 
	C238.975784,352.640320 240.360901,354.149628 241.058929,355.610718 
	C241.719208,354.106812 242.859924,352.632965 242.956146,351.093811 
	C243.359985,344.632965 242.825317,338.056915 243.796783,331.700745 
	C245.449631,320.886169 247.873032,310.182709 250.184006,299.478180 
	C251.298599,294.315430 252.278549,288.982941 254.400833,284.207947 
	C258.737549,274.450562 263.748230,264.988983 268.601959,255.467102 
	C270.452576,251.836639 272.078857,247.859818 274.782379,244.945221 
	C280.147461,239.161209 286.940247,234.594818 291.769592,228.446457 
	C298.401276,220.003464 308.030853,217.277481 316.949890,213.445404 
	C327.951538,208.718506 339.716217,208.892715 351.536407,210.885651 
	C356.100647,211.655212 357.361816,213.682297 357.205902,217.832962 
	C356.974640,223.988312 357.095276,230.156219 356.916656,236.314468 
	C356.835693,239.105652 357.926300,240.577240 360.698822,239.994827 
	C364.463257,239.204025 368.107819,237.779480 371.890900,237.151230 
	C390.215302,234.108032 408.576691,231.388412 427.253479,231.947830 
	C429.951630,232.028641 432.671051,231.400970 435.395782,231.099487 
	C434.527130,227.874710 433.849762,225.360046 433.172363,222.845383 
	C435.707642,225.979645 438.242950,229.113892 441.015411,232.499878 
z"/>
<path fill="#FCF3E8" opacity="1.000000" stroke="none" 
	d="
M409.444244,235.000366 
	C412.175629,234.679199 415.372925,234.182907 418.579224,234.115677 
	C425.712708,233.966141 432.850677,234.031311 440.437622,234.091248 
	C436.674469,234.458664 432.463959,234.896667 428.245667,234.992630 
	C422.138153,235.131531 416.024994,235.022934 409.444244,235.000366 
z"/>
<path fill="#226050" opacity="1.000000" stroke="none" 
	d="
M394.923859,404.313110 
	C395.189575,411.729340 390.429810,416.817200 385.807037,421.292786 
	C378.480560,428.385925 368.601013,432.108887 357.304230,433.723602 
	C357.304230,423.959900 357.304230,414.247284 358.052032,404.280701 
	C360.129547,404.039124 361.551819,404.369354 362.774353,404.013489 
	C372.432739,401.201965 381.986053,400.767151 391.522400,404.581848 
	C392.468933,404.960480 393.781281,404.424561 394.923859,404.313110 
z"/>
<path fill="#AF3330" opacity="1.000000" stroke="none" 
	d="
M394.965515,403.816376 
	C393.781281,404.424561 392.468933,404.960480 391.522400,404.581848 
	C381.986053,400.767151 372.432739,401.201965 362.774353,404.013489 
	C361.551819,404.369354 360.129547,404.039124 358.355896,403.983002 
	C357.911438,396.625824 357.910919,389.312378 358.330017,381.576477 
	C359.344452,387.979767 359.939270,394.805481 360.539459,401.692810 
	C364.698395,400.477844 364.698395,400.477844 365.489899,394.161499 
	C365.564575,398.954468 367.706757,400.593597 372.107361,399.997437 
	C374.391327,399.688019 376.755066,399.991211 379.082458,399.973816 
	C386.257446,399.920227 387.960266,397.692200 386.399597,390.440308 
	C379.596344,391.912781 379.291870,391.751587 379.178802,386.313812 
	C381.688080,386.548615 384.093262,386.416962 385.905914,387.389618 
	C387.455048,388.220886 388.508575,390.221252 389.404907,391.904877 
	C389.771454,392.593445 388.822845,393.889282 389.039429,394.769348 
	C389.533539,396.777222 390.377655,398.698914 391.079620,400.655609 
	C392.061890,398.795990 393.838562,396.953125 393.878143,395.073669 
	C393.998901,389.341949 393.450317,383.596161 393.189636,378.401672 
	C384.986206,375.810547 382.224030,381.757599 378.208679,386.146912 
	C376.971558,386.005737 375.340363,385.575317 375.265381,385.763763 
	C373.241180,390.853424 369.213440,389.677734 365.278137,388.764587 
	C365.861298,388.022339 366.486237,387.509979 367.193573,387.168427 
	C368.693970,386.444000 371.614655,385.421021 371.551392,385.196106 
	C370.866302,382.760834 370.134430,378.848114 368.604675,378.449493 
	C365.355469,377.602783 361.624817,378.603424 358.091553,378.846741 
	C358.010803,365.050171 357.963501,351.253235 357.818756,337.457336 
	C357.792389,334.945068 358.659149,333.841522 361.265594,333.860565 
	C371.409058,333.934631 381.554169,333.968323 391.696777,333.850769 
	C394.840912,333.814301 395.140320,335.533905 395.132812,337.967651 
	C395.065613,359.751587 395.042908,381.535614 394.965515,403.816376 
M393.980682,341.787170 
	C394.562683,337.412231 392.654053,335.076233 388.236359,335.040161 
	C380.410919,334.976288 372.581238,334.882202 364.760223,335.077026 
	C361.572815,335.156433 358.969421,336.483948 358.991943,340.437378 
	C359.039490,348.776031 358.933746,357.116608 359.093109,365.452484 
	C359.115784,366.637848 360.007050,368.521179 360.940033,368.860138 
	C367.687958,371.311798 371.309021,368.617249 370.944641,361.660461 
	C370.903900,360.882782 370.574005,360.120239 370.395905,359.420166 
	C369.677032,359.257751 369.185638,359.026398 368.712219,359.058777 
	C364.822357,359.324371 363.284637,357.086914 363.091949,353.641846 
	C362.920807,350.582275 363.516693,348.360931 367.424683,347.657745 
	C368.894440,347.393280 370.666992,344.165405 370.814545,342.178070 
	C371.110229,338.195831 373.101959,337.010315 376.531067,337.018951 
	C380.128662,337.028015 382.652557,338.028290 382.023865,342.489471 
	C381.591675,345.556458 382.084137,347.986206 386.245911,348.254913 
	C387.562622,348.339905 389.620819,350.700623 389.734436,352.146057 
	C389.873718,353.917389 388.726318,356.219055 387.395142,357.552887 
	C386.131866,358.818695 383.913330,359.131256 382.318848,359.779968 
	C382.318848,362.881531 382.318848,365.643005 382.318848,368.570618 
	C386.182831,369.028778 389.717102,369.447845 393.980469,369.953339 
	C393.980469,360.601257 393.980469,351.665222 393.980682,341.787170 
M375.602783,339.056458 
	C374.751129,340.129211 373.353302,341.113708 373.162598,342.293304 
	C372.777405,344.676117 373.047760,347.164856 373.047760,349.806763 
	C370.061188,349.990112 367.664337,350.137268 364.995331,350.301117 
	C365.139221,352.449799 365.244720,354.025238 365.358429,355.723541 
	C368.031250,355.881134 370.295135,356.014587 372.741699,356.158844 
	C372.741699,361.196960 372.741699,365.921844 372.741699,371.104065 
	C368.878510,371.104065 365.313568,371.104065 361.721924,371.104065 
	C362.029602,372.950623 362.261444,374.342072 362.554657,376.101929 
	C366.148163,376.101929 369.418823,376.101929 372.762360,376.101929 
	C372.987579,378.461365 373.172333,380.396851 373.336884,382.120911 
	C375.584625,382.120911 377.639618,382.120911 379.709625,382.120911 
	C379.916840,380.033600 380.106781,378.120178 380.335632,375.814880 
	C383.935181,375.814880 387.203705,375.814880 390.879272,375.814880 
	C390.749817,373.998199 390.653442,372.645752 390.525940,370.856476 
	C386.861847,370.856476 383.607330,370.856476 380.303528,370.856476 
	C380.303528,365.660187 380.303528,360.938843 380.303528,356.188202 
	C382.955078,355.976593 385.232361,355.794861 387.607727,355.605286 
	C387.607727,353.725128 387.607727,352.145233 387.607727,350.338654 
	C384.977875,350.139832 382.588318,349.959198 379.920563,349.757477 
	C379.920563,346.850006 380.278412,344.294220 379.766296,341.926575 
	C379.518280,340.779907 377.638153,339.986206 375.602783,339.056458 
z"/>
<path fill="#E21C15" opacity="1.000000" stroke="none" 
	d="
M353.833252,358.132629 
	C353.688110,362.856689 353.542969,367.580719 352.697327,372.640808 
	C340.060669,372.976715 328.124481,372.976593 316.188263,372.976471 
	C316.370850,368.215668 316.553436,363.454834 317.415527,358.337952 
	C330.007782,358.032135 341.920532,358.082397 353.833252,358.132629 
z"/>
<path fill="#E21C15" opacity="1.000000" stroke="none" 
	d="
M317.256592,348.011139 
	C316.853088,343.955811 316.296051,339.903717 316.211182,335.841736 
	C316.198395,335.230682 318.384705,334.037720 319.566071,334.021667 
	C329.880310,333.881256 340.197693,333.993835 350.513306,333.919983 
	C353.100128,333.901489 354.131561,334.941559 354.020844,337.474274 
	C353.882965,340.627777 353.884735,343.787323 353.382446,347.440857 
	C341.044678,347.962036 329.150635,347.986572 317.256592,348.011139 
z"/>
<path fill="#FCF3E8" opacity="1.000000" stroke="none" 
	d="
M316.892853,348.229675 
	C329.150635,347.986572 341.044678,347.962036 353.386719,347.898987 
	C353.847504,350.972595 353.860229,354.084747 353.853119,357.664734 
	C341.920532,358.082397 330.007782,358.032135 317.649536,357.982941 
	C316.979004,354.805389 316.754028,351.626801 316.892853,348.229675 
z"/>
<path fill="#FCF3E8" opacity="1.000000" stroke="none" 
	d="
M316.107300,373.423950 
	C328.124481,372.976593 340.060669,372.976715 352.455933,372.987671 
	C353.255951,375.989655 353.596893,378.980743 353.506226,382.446594 
	C340.725952,382.916992 328.377350,382.912689 316.028717,382.908386 
	C316.027924,379.896027 316.027130,376.883728 316.107300,373.423950 
z"/>
<path fill="#E21C15" opacity="1.000000" stroke="none" 
	d="
M325.814667,419.078278 
	C325.519714,418.967072 325.291199,418.776306 324.951874,418.044373 
	C324.466156,417.427887 324.157623,417.273041 323.849060,417.118195 
	C322.942017,415.987305 322.034943,414.856445 321.078064,413.026947 
	C322.555237,411.258942 324.070831,409.296204 325.611176,409.276611 
	C331.906677,409.196381 338.207062,409.839355 344.510712,409.970245 
	C351.735748,410.120300 351.726410,410.009766 353.266327,416.974792 
	C353.360474,417.400635 353.864746,417.735840 354.178192,418.113190 
	C354.087982,418.496246 353.997772,418.879272 353.415894,419.583740 
	C344.264862,419.954041 335.605499,420.002899 326.946106,420.051788 
	C326.946106,420.051788 326.978668,419.994934 326.876038,419.768402 
	C326.453827,419.387329 326.134247,419.232819 325.814667,419.078278 
z"/>
<path fill="#E21C15" opacity="1.000000" stroke="none" 
	d="
M358.051025,379.219208 
	C361.624817,378.603424 365.355469,377.602783 368.604675,378.449493 
	C370.134430,378.848114 370.866302,382.760834 371.551392,385.196106 
	C371.614655,385.421021 368.693970,386.444000 367.193573,387.168427 
	C366.486237,387.509979 365.861298,388.022339 365.073547,388.978149 
	C365.043701,390.952911 365.139343,392.406891 365.234955,393.860840 
	C364.698395,400.477844 364.698395,400.477844 360.539459,401.692810 
	C359.939270,394.805481 359.344452,387.979767 358.415070,381.119751 
	C358.057190,380.587555 358.033875,380.089630 358.051025,379.219208 
z"/>
<path fill="#FCF3E8" opacity="1.000000" stroke="none" 
	d="
M353.973602,422.211670 
	C353.973602,425.491913 353.973602,428.772125 353.973602,432.356445 
	C344.810486,431.184814 336.785614,427.998413 329.769531,422.494080 
	C337.996643,422.197388 345.985138,422.204529 353.973602,422.211670 
z"/>
<path fill="#FCF3E8" opacity="1.000000" stroke="none" 
	d="
M354.007843,397.115356 
	C353.981232,400.416351 353.954651,403.717346 353.495850,407.458771 
	C341.389709,407.922638 329.715790,407.946075 318.041901,407.969543 
	C317.366852,404.615051 316.691803,401.260590 316.480530,397.488892 
	C329.298798,397.086212 341.653320,397.100800 354.007843,397.115356 
M324.921021,405.990784 
	C333.055786,405.988770 341.191742,405.906097 349.324646,406.028320 
	C352.189941,406.071350 353.042999,404.914093 353.049286,402.187225 
	C353.055786,399.370392 352.426544,397.906097 349.188965,397.971375 
	C340.891571,398.138733 332.586914,397.938812 324.288940,398.091644 
	C322.259399,398.129028 320.244385,398.957092 317.886444,399.498901 
	C318.845428,403.297668 319.969086,406.024963 324.921021,405.990784 
z"/>
<path fill="#AF3330" opacity="1.000000" stroke="none" 
	d="
M354.028748,396.641968 
	C341.653320,397.100800 329.298798,397.086212 316.476471,397.076965 
	C315.995239,392.671448 315.981812,388.260590 315.998535,383.379089 
	C328.377350,382.912689 340.725952,382.916992 353.543518,382.881348 
	C354.024841,387.283752 354.037262,391.726166 354.028748,396.641968 
M331.519562,384.047211 
	C328.699799,384.047363 325.867554,384.216400 323.063171,384.008789 
	C318.629883,383.680664 317.294006,386.090820 316.996552,389.978027 
	C316.651764,394.483459 319.164948,395.899811 323.010712,395.924683 
	C331.635468,395.980530 340.261902,395.859131 348.885468,395.975037 
	C353.219299,396.033234 353.103943,393.215027 352.999207,390.266937 
	C352.896912,387.386810 353.777313,383.934021 348.934113,384.026733 
	C343.462494,384.131470 337.987305,384.048584 331.519562,384.047211 
z"/>
<path fill="#AF3330" opacity="1.000000" stroke="none" 
	d="
M318.178406,408.273163 
	C329.715790,407.946075 341.389709,407.922638 353.532593,407.908264 
	C354.225067,411.140137 354.448578,414.362946 354.425171,417.849487 
	C353.864746,417.735840 353.360474,417.400635 353.266327,416.974792 
	C351.726410,410.009766 351.735748,410.120300 344.510712,409.970245 
	C338.207062,409.839355 331.906677,409.196381 325.611176,409.276611 
	C324.070831,409.296204 322.555237,411.258942 320.955994,412.734619 
	C320.027435,411.619568 319.171173,410.098175 318.178406,408.273163 
z"/>
<path fill="#AF3330" opacity="1.000000" stroke="none" 
	d="
M353.952789,421.815308 
	C345.985138,422.204529 337.996643,422.197388 329.545532,422.264099 
	C328.446411,421.775391 327.809937,421.212799 327.059814,420.350983 
	C335.605499,420.002899 344.264862,419.954041 353.359528,419.873962 
	C353.840515,420.368134 353.886261,420.893524 353.952789,421.815308 
z"/>
<path fill="#AF3330" opacity="1.000000" stroke="none" 
	d="
M325.934875,419.315552 
	C326.134247,419.232819 326.453827,419.387329 326.869080,419.799500 
	C326.661530,419.889008 326.358337,419.720917 325.934875,419.315552 
z"/>
<path fill="#AF3330" opacity="1.000000" stroke="none" 
	d="
M323.960938,417.347321 
	C324.157623,417.273041 324.466156,417.427887 324.854462,417.839722 
	C324.647095,417.923279 324.359924,417.749847 323.960938,417.347321 
z"/>
<path fill="#FCF3E8" opacity="1.000000" stroke="none" 
	d="
M349.772003,295.738037 
	C348.694092,295.755768 347.236725,295.573273 347.214966,295.283173 
	C347.031433,292.834656 347.110321,290.366455 347.110321,287.475708 
	C349.443939,287.475708 351.647430,287.475708 353.061768,287.475708 
	C352.807526,288.880646 352.670135,290.689423 352.112579,292.357819 
	C351.730133,293.502228 350.763550,294.451447 349.772003,295.738037 
z"/>
<path fill="#FCF3E8" opacity="1.000000" stroke="none" 
	d="
M363.481140,287.644897 
	C363.759949,290.703308 363.759949,293.438751 363.759949,296.501343 
	C361.805664,295.805023 360.145233,295.213440 358.179291,294.512970 
	C358.877594,291.958527 362.645966,288.678986 357.040497,286.994049 
	C359.094421,287.103333 361.148376,287.212616 363.481140,287.644897 
z"/>
<path fill="#FCF3E8" opacity="1.000000" stroke="none" 
	d="
M351.883362,319.637329 
	C352.833649,318.951050 353.681091,318.033051 354.159790,318.196320 
	C356.456360,318.979462 358.653229,320.055023 360.885498,321.026764 
	C360.274902,322.008911 359.689758,323.810974 359.049286,323.830841 
	C356.329590,323.915283 353.593536,323.471100 350.863403,323.220032 
	C351.112457,322.114624 351.361511,321.009247 351.883362,319.637329 
z"/>
<path fill="#FCF3E8" opacity="1.000000" stroke="none" 
	d="
M341.007233,323.987366 
	C339.524506,322.871338 338.468414,321.755676 337.412354,320.640045 
	C337.699463,320.234863 337.986572,319.829651 338.273682,319.424438 
	C339.968628,319.424438 341.663544,319.424438 345.223694,319.424438 
	C343.480957,321.522919 342.457428,322.755341 341.007233,323.987366 
z"/>
<path fill="#FCF3E8" opacity="1.000000" stroke="none" 
	d="
M372.959015,321.072449 
	C372.908569,324.750427 370.645172,324.262451 368.904236,323.468536 
	C368.297760,323.192017 368.480347,321.185150 368.302582,319.968536 
	C369.849854,320.198029 371.397156,320.427521 372.959015,321.072449 
z"/>
<path fill="#12664F" opacity="1.000000" stroke="none" 
	d="
M433.095520,466.542542 
	C435.493042,466.917236 438.126343,467.282043 440.088837,468.626221 
	C441.156158,469.357178 441.904968,472.118713 441.366364,473.325897 
	C439.935394,476.533203 437.758362,479.414185 435.812012,482.381622 
	C435.089813,483.482666 433.811523,484.342377 433.429535,485.520508 
	C432.168945,489.408417 429.958618,491.108276 425.329468,488.919128 
	C425.160950,493.838470 425.450653,499.113953 418.558807,496.829346 
	C417.638550,499.734680 417.327637,502.645508 415.851135,504.731140 
	C414.783234,506.239624 412.167603,506.652344 409.940765,507.694824 
	C409.940765,508.885773 409.940765,510.486481 409.886841,512.459595 
	C406.193970,513.585938 402.025208,512.384277 399.212189,516.329468 
	C398.685364,517.068359 395.874908,516.178894 394.123932,516.041321 
	C393.454498,522.434204 392.998688,522.659973 383.559082,521.298950 
	C383.559082,522.712280 383.559082,524.071411 383.559082,526.026672 
	C382.378143,525.447632 381.535736,525.034607 380.576324,524.564209 
	C379.133911,529.848206 374.033264,529.666443 370.153259,529.638306 
	C358.158936,529.551453 346.141876,528.922974 334.199585,527.802368 
	C331.041962,527.506042 328.111542,524.695374 325.099182,522.999451 
	C324.148102,522.463989 323.100616,521.121704 322.385010,521.300476 
	C316.470245,522.778198 313.415161,518.813232 309.891571,515.340637 
	C307.707397,513.188049 304.896790,511.685303 302.578369,509.650482 
	C300.596252,507.910950 298.914734,505.828918 296.552979,503.316071 
	C297.032806,500.614227 298.329346,496.606415 291.806580,497.466705 
	C290.801178,497.599335 289.190155,494.711426 288.245392,493.006409 
	C287.832672,492.261566 288.393127,490.977478 287.613800,489.665649 
	C287.158508,490.667480 286.703186,491.669312 286.291321,492.575531 
	C283.805756,490.288818 281.423279,488.303284 279.314728,486.060242 
	C278.413361,485.101349 277.272980,482.961609 277.654297,482.481964 
	C278.575684,481.323151 280.326569,480.171295 281.746613,480.166901 
	C291.246704,480.137543 300.747589,480.496033 310.248535,480.507904 
	C312.066803,480.510193 313.875824,479.136292 315.707397,479.087799 
	C319.755188,478.980652 323.814575,479.313080 327.602844,479.456177 
	C329.644867,478.099304 331.730499,475.865997 334.225311,475.224884 
	C340.169342,473.697540 346.306641,472.922333 353.323883,471.672699 
	C353.323883,480.665375 353.141388,488.558716 353.468353,496.430939 
	C353.539001,498.131531 355.113220,500.208069 356.594604,501.291168 
	C358.147217,502.426331 360.387024,502.790588 362.387421,503.109924 
	C366.918091,503.833221 371.486298,504.321655 377.357941,505.074707 
	C375.537048,503.623596 374.737946,502.986786 373.291443,501.834015 
	C377.823090,501.560699 381.681915,498.699036 385.313324,503.574280 
	C386.316284,504.920776 389.697571,504.495728 391.996399,504.885010 
	C392.473755,497.283966 392.482513,497.414948 400.314789,496.891052 
	C402.012665,496.777466 403.865845,495.637939 405.228851,494.478760 
	C409.731689,490.649353 413.470123,484.592133 418.572479,483.132690 
	C424.968048,481.303314 426.567383,475.553864 431.181396,472.631683 
	C432.483826,471.806824 432.464691,468.895294 433.095520,466.542542 
z"/>
<path fill="#12664F" opacity="1.000000" stroke="none" 
	d="
M449.037384,465.025543 
	C445.629120,464.917603 442.187256,464.787689 438.745392,464.657776 
	C438.536713,464.084503 438.328003,463.511230 438.119324,462.937927 
	C440.296844,460.713898 442.572052,458.573700 444.595001,456.216949 
	C445.239655,455.465881 445.191437,454.132874 445.500275,453.077881 
	C446.050934,451.197083 446.300110,449.130981 447.262543,447.485901 
	C450.175476,442.506775 453.369843,437.692352 456.454559,432.813721 
	C456.941315,432.900635 457.428070,432.987549 457.914825,433.074463 
	C457.371002,436.413971 457.175476,439.861359 456.183899,443.062134 
	C455.221741,446.167816 453.129333,448.916138 452.099915,452.009949 
	C450.776428,455.987579 450.017944,460.153198 449.031738,464.654419 
	C449.047424,465.070953 449.003784,465.003571 449.037384,465.025543 
z"/>
<path fill="#12664F" opacity="1.000000" stroke="none" 
	d="
M463.037476,410.226318 
	C463.413300,406.048157 463.818970,402.259735 464.292175,397.840820 
	C471.404175,403.543365 465.735443,408.224091 464.625824,414.041809 
	C463.830261,412.293060 463.448822,411.454590 463.037476,410.226318 
z"/>
<path fill="#E21C15" opacity="1.000000" stroke="none" 
	d="
M433.087646,222.919739 
	C433.849762,225.360046 434.527130,227.874710 435.395782,231.099487 
	C432.671051,231.400970 429.951630,232.028641 427.253479,231.947830 
	C408.576691,231.388412 390.215302,234.108032 371.890900,237.151230 
	C368.107819,237.779480 364.463257,239.204025 360.698822,239.994827 
	C357.926300,240.577240 356.835693,239.105652 356.916656,236.314468 
	C357.095276,230.156219 356.974640,223.988312 357.205902,217.832962 
	C357.361816,213.682297 356.100647,211.655212 351.536407,210.885651 
	C339.716217,208.892715 327.951538,208.718506 316.949890,213.445404 
	C308.030853,217.277481 298.401276,220.003464 291.769592,228.446457 
	C286.940247,234.594818 280.147461,239.161209 274.782379,244.945221 
	C272.078857,247.859818 270.452576,251.836639 268.601959,255.467102 
	C263.748230,264.988983 258.737549,274.450562 254.400833,284.207947 
	C252.278549,288.982941 251.298599,294.315430 250.184006,299.478180 
	C247.873032,310.182709 245.449631,320.886169 243.796783,331.700745 
	C242.825317,338.056915 243.359985,344.632965 242.956146,351.093811 
	C242.859924,352.632965 241.719208,354.106812 241.058929,355.610718 
	C240.360901,354.149628 238.975784,352.640320 239.074478,351.235168 
	C239.804733,340.836975 240.548157,330.423889 241.853073,320.086884 
	C242.884033,311.919922 244.207809,303.718018 246.326706,295.778534 
	C248.987396,285.808960 252.278168,275.974152 255.887817,266.301697 
	C258.821014,258.441803 262.230072,250.695953 266.179077,243.300583 
	C268.911499,238.183563 272.956085,233.773117 276.341217,228.995163 
	C277.379883,227.529205 277.996979,225.747650 279.113342,224.356323 
	C287.196167,214.282684 295.398865,204.600952 306.459778,197.194275 
	C314.502563,191.808563 322.471619,186.389267 331.652008,184.093445 
	C344.739838,180.820496 358.428406,177.307877 371.689240,182.330048 
	C379.805115,185.403702 388.333069,186.771393 396.174377,191.874588 
	C407.163940,199.026718 417.174255,206.766968 425.624878,216.639603 
	C427.118805,218.384918 427.866791,220.759293 429.308807,222.563843 
	C429.772369,223.143936 431.359009,222.826599 432.793365,222.873779 
	C433.154907,222.827728 433.002930,222.994110 433.087646,222.919739 
z"/>
<path fill="#E21C15" opacity="1.000000" stroke="none" 
	d="
M393.980591,342.258179 
	C393.980469,351.665222 393.980469,360.601257 393.980469,369.953339 
	C389.717102,369.447845 386.182831,369.028778 382.318848,368.570618 
	C382.318848,365.643005 382.318848,362.881531 382.318848,359.779968 
	C383.913330,359.131256 386.131866,358.818695 387.395142,357.552887 
	C388.726318,356.219055 389.873718,353.917389 389.734436,352.146057 
	C389.620819,350.700623 387.562622,348.339905 386.245911,348.254913 
	C382.084137,347.986206 381.591675,345.556458 382.023865,342.489471 
	C382.652557,338.028290 380.128662,337.028015 376.531067,337.018951 
	C373.101959,337.010315 371.110229,338.195831 370.814545,342.178070 
	C370.666992,344.165405 368.894440,347.393280 367.424683,347.657745 
	C363.516693,348.360931 362.920807,350.582275 363.091949,353.641846 
	C363.284637,357.086914 364.822357,359.324371 368.712219,359.058777 
	C369.185638,359.026398 369.677032,359.257751 370.395905,359.420166 
	C370.574005,360.120239 370.903900,360.882782 370.944641,361.660461 
	C371.309021,368.617249 367.687958,371.311798 360.940033,368.860138 
	C360.007050,368.521179 359.115784,366.637848 359.093109,365.452484 
	C358.933746,357.116608 359.039490,348.776031 358.991943,340.437378 
	C358.969421,336.483948 361.572815,335.156433 364.760223,335.077026 
	C372.581238,334.882202 380.410919,334.976288 388.236359,335.040161 
	C392.654053,335.076233 394.562683,337.412231 393.980591,342.258179 
z"/>
<path fill="#FCF3E8" opacity="1.000000" stroke="none" 
	d="
M376.049866,339.044556 
	C377.638153,339.986206 379.518280,340.779907 379.766296,341.926575 
	C380.278412,344.294220 379.920563,346.850006 379.920563,349.757477 
	C382.588318,349.959198 384.977875,350.139832 387.607727,350.338654 
	C387.607727,352.145233 387.607727,353.725128 387.607727,355.605286 
	C385.232361,355.794861 382.955078,355.976593 380.303528,356.188202 
	C380.303528,360.938843 380.303528,365.660187 380.303528,370.856476 
	C383.607330,370.856476 386.861847,370.856476 390.525940,370.856476 
	C390.653442,372.645752 390.749817,373.998199 390.879272,375.814880 
	C387.203705,375.814880 383.935181,375.814880 380.335632,375.814880 
	C380.106781,378.120178 379.916840,380.033600 379.709625,382.120911 
	C377.639618,382.120911 375.584625,382.120911 373.336884,382.120911 
	C373.172333,380.396851 372.987579,378.461365 372.762360,376.101929 
	C369.418823,376.101929 366.148163,376.101929 362.554657,376.101929 
	C362.261444,374.342072 362.029602,372.950623 361.721924,371.104065 
	C365.313568,371.104065 368.878510,371.104065 372.741699,371.104065 
	C372.741699,365.921844 372.741699,361.196960 372.741699,356.158844 
	C370.295135,356.014587 368.031250,355.881134 365.358429,355.723541 
	C365.244720,354.025238 365.139221,352.449799 364.995331,350.301117 
	C367.664337,350.137268 370.061188,349.990112 373.047760,349.806763 
	C373.047760,347.164856 372.777405,344.676117 373.162598,342.293304 
	C373.353302,341.113708 374.751129,340.129211 376.049866,339.044556 
z"/>
<path fill="#AEA47E" opacity="1.000000" stroke="none" 
	d="
M365.489899,394.161499 
	C365.139343,392.406891 365.043701,390.952911 365.152649,389.285431 
	C369.213440,389.677734 373.241180,390.853424 375.265381,385.763763 
	C375.340363,385.575317 376.971558,386.005737 378.290527,386.204742 
	C378.703522,386.261719 378.817657,386.426392 378.817657,386.426392 
	C379.291870,391.751587 379.596344,391.912781 386.399597,390.440308 
	C387.960266,397.692200 386.257446,399.920227 379.082458,399.973816 
	C376.755066,399.991211 374.391327,399.688019 372.107361,399.997437 
	C367.706757,400.593597 365.564575,398.954468 365.489899,394.161499 
z"/>
<path fill="#E21C15" opacity="1.000000" stroke="none" 
	d="
M378.621704,386.203888 
	C382.224030,381.757599 384.986206,375.810547 393.189636,378.401672 
	C393.450317,383.596161 393.998901,389.341949 393.878143,395.073669 
	C393.838562,396.953125 392.061890,398.795990 391.079620,400.655609 
	C390.377655,398.698914 389.533539,396.777222 389.039429,394.769348 
	C388.822845,393.889282 389.771454,392.593445 389.404907,391.904877 
	C388.508575,390.221252 387.455048,388.220886 385.905914,387.389618 
	C384.093262,386.416962 381.688080,386.548615 379.178802,386.313812 
	C378.817657,386.426392 378.703522,386.261719 378.621704,386.203888 
z"/>
<path fill="#EAFBF9" opacity="1.000000" stroke="none" 
	d="
M324.474274,405.989349 
	C319.969086,406.024963 318.845428,403.297668 317.886444,399.498901 
	C320.244385,398.957092 322.259399,398.129028 324.288940,398.091644 
	C332.586914,397.938812 340.891571,398.138733 349.188965,397.971375 
	C352.426544,397.906097 353.055786,399.370392 353.049286,402.187225 
	C353.042999,404.914093 352.189941,406.071350 349.324646,406.028320 
	C341.191742,405.906097 333.055786,405.988770 324.474274,405.989349 
z"/>
<path fill="#E21C15" opacity="1.000000" stroke="none" 
	d="
M332.016602,384.047241 
	C337.987305,384.048584 343.462494,384.131470 348.934113,384.026733 
	C353.777313,383.934021 352.896912,387.386810 352.999207,390.266937 
	C353.103943,393.215027 353.219299,396.033234 348.885468,395.975037 
	C340.261902,395.859131 331.635468,395.980530 323.010712,395.924683 
	C319.164948,395.899811 316.651764,394.483459 316.996552,389.978027 
	C317.294006,386.090820 318.629883,383.680664 323.063171,384.008789 
	C325.867554,384.216400 328.699799,384.047363 332.016602,384.047241 
z"/>
</svg>